<svg width="186" height="63" viewBox="0 0 186 63" fill="none" xmlns="http://www.w3.org/2000/svg">
<g id="619cbf86ffe78e34b9138bb1_icon-app-store.svg" clip-path="url(#clip0_4232_3027)">
<g id="Vector" filter="url(#filter0_b_4232_3027)">
<path d="M176.273 0.974609H10.1942C4.87043 0.974609 0.554688 5.29036 0.554688 10.6141V52.5382C0.554688 57.862 4.87043 62.1777 10.1942 62.1777H176.273C181.597 62.1777 185.913 57.862 185.913 52.5382V10.6141C185.913 5.29036 181.597 0.974609 176.273 0.974609Z" fill="#5467CC" fill-opacity="0.1"/>
<path d="M10.1942 1.22461H176.273C181.459 1.22461 185.663 5.42843 185.663 10.6141V52.5382C185.663 57.7239 181.459 61.9277 176.273 61.9277H10.1942C5.00851 61.9277 0.804688 57.7239 0.804688 52.5382V10.6141C0.804688 5.42843 5.00851 1.22461 10.1942 1.22461Z" stroke="url(#paint0_linear_4232_3027)" stroke-width="0.5"/>
</g>
<path id="Vector_2" d="M56.7188 15.957V24.5817H59.8327C62.4028 24.5817 63.891 22.9978 63.891 20.2425C63.891 17.529 62.3908 15.957 59.8327 15.957H56.7188ZM58.0575 17.1764H59.6833C61.4704 17.1764 62.5282 18.312 62.5282 20.2604C62.5282 22.2387 61.4883 23.3624 59.6833 23.3624H58.0575V17.1764Z" fill="#F9F9FA"/>
<path id="Vector_3" d="M68.2987 24.7072C70.1993 24.7072 71.3648 23.434 71.3648 21.3242C71.3648 19.2263 70.1934 17.9473 68.2987 17.9473C66.3981 17.9473 65.2266 19.2263 65.2266 21.3242C65.2266 23.434 66.392 24.7072 68.2987 24.7072ZM68.2987 23.5655C67.181 23.5655 66.5534 22.7467 66.5534 21.3242C66.5534 19.9136 67.181 19.0889 68.2987 19.0889C69.4104 19.0889 70.044 19.9136 70.044 21.3242C70.044 22.7407 69.4104 23.5655 68.2987 23.5655Z" fill="#F9F9FA"/>
<path id="Vector_4" d="M81.1363 18.0723H79.8512L78.6917 23.039H78.5901L77.2513 18.0723H76.02L74.6812 23.039H74.5856L73.4201 18.0723H72.1172L73.9102 24.581H75.2311L76.5699 19.7876H76.6715L78.0163 24.581H79.3491L81.1363 18.0723Z" fill="#F9F9FA"/>
<path id="Vector_5" d="M82.4609 24.5816H83.7459V20.7743C83.7459 19.7583 84.3496 19.1247 85.2999 19.1247C86.2502 19.1247 86.7045 19.6447 86.7045 20.6907V24.5816H87.9896V20.3679C87.9896 18.8199 87.1886 17.9473 85.7363 17.9473C84.7561 17.9473 84.1105 18.3836 83.7938 19.1068H83.6981V18.0728H82.4609V24.5816Z" fill="#F9F9FA"/>
<path id="Vector_6" d="M89.8633 24.5822H91.1477V15.5332H89.8633V24.5822Z" fill="#F9F9FA"/>
<path id="Vector_7" d="M95.8263 24.7072C97.7271 24.7072 98.8926 23.434 98.8926 21.3242C98.8926 19.2263 97.721 17.9473 95.8263 17.9473C93.9255 17.9473 92.7539 19.2263 92.7539 21.3242C92.7539 23.434 93.9194 24.7072 95.8263 24.7072ZM95.8263 23.5655C94.7089 23.5655 94.0811 22.7467 94.0811 21.3242C94.0811 19.9136 94.7089 19.0889 95.8263 19.0889C96.9376 19.0889 97.5715 19.9136 97.5715 21.3242C97.5715 22.7407 96.9376 23.5655 95.8263 23.5655Z" fill="#F9F9FA"/>
<path id="Vector_8" d="M102.569 23.6073C101.87 23.6073 101.362 23.2667 101.362 22.681C101.362 22.1072 101.768 21.8024 102.664 21.7426L104.254 21.641V22.1849C104.254 22.9917 103.537 23.6073 102.569 23.6073ZM102.24 24.6891C103.095 24.6891 103.806 24.3186 104.195 23.6671H104.296V24.5816H105.533V20.1348C105.533 18.7601 104.613 17.9473 102.981 17.9473C101.505 17.9473 100.453 18.6645 100.321 19.7821H101.565C101.708 19.322 102.205 19.059 102.922 19.059C103.8 19.059 104.254 19.4474 104.254 20.1348V20.6966L102.491 20.7983C100.943 20.8938 100.07 21.5693 100.07 22.7407C100.07 23.9301 100.985 24.6891 102.24 24.6891Z" fill="#F9F9FA"/>
<path id="Vector_9" d="M109.741 24.6897C110.637 24.6897 111.396 24.2654 111.785 23.5541H111.886V24.5822H113.117V15.5332H111.832V19.1074H111.737C111.384 18.3902 110.631 17.9658 109.741 17.9658C108.097 17.9658 107.039 19.2688 107.039 21.3248C107.039 23.3868 108.085 24.6897 109.741 24.6897ZM110.105 19.1194C111.181 19.1194 111.857 19.974 111.857 21.3307C111.857 22.6934 111.187 23.5362 110.105 23.5362C109.018 23.5362 108.366 22.7054 108.366 21.3248C108.366 19.9561 109.024 19.1194 110.105 19.1194Z" fill="#F9F9FA"/>
<path id="Vector_10" d="M121.147 24.7072C123.047 24.7072 124.213 23.434 124.213 21.3242C124.213 19.2263 123.041 17.9473 121.147 17.9473C119.246 17.9473 118.074 19.2263 118.074 21.3242C118.074 23.434 119.24 24.7072 121.147 24.7072ZM121.147 23.5655C120.029 23.5655 119.401 22.7467 119.401 21.3242C119.401 19.9136 120.029 19.0889 121.147 19.0889C122.258 19.0889 122.892 19.9136 122.892 21.3242C122.892 22.7407 122.258 23.5655 121.147 23.5655Z" fill="#F9F9FA"/>
<path id="Vector_11" d="M125.758 24.5816H127.043V20.7743C127.043 19.7583 127.646 19.1247 128.597 19.1247C129.547 19.1247 130.002 19.6447 130.002 20.6907V24.5816H131.286V20.3679C131.286 18.8199 130.485 17.9473 129.033 17.9473C128.053 17.9473 127.408 18.3836 127.091 19.1068H126.995V18.0728H125.758V24.5816Z" fill="#F9F9FA"/>
<path id="Vector_12" d="M136.901 16.4531V18.1027H135.867V19.1845H136.901V22.8603C136.901 24.1155 137.469 24.6175 138.898 24.6175C139.149 24.6175 139.387 24.5876 139.596 24.5518V23.482C139.417 23.4999 139.303 23.5119 139.107 23.5119C138.467 23.5119 138.186 23.213 138.186 22.5316V19.1845H139.596V18.1027H138.186V16.4531H136.901Z" fill="#F9F9FA"/>
<path id="Vector_13" d="M141.168 24.5822H142.453V20.7808C142.453 19.7947 143.039 19.1312 144.091 19.1312C144.999 19.1312 145.484 19.6572 145.484 20.6972V24.5822H146.769V20.3804C146.769 18.8324 145.914 17.9538 144.527 17.9538C143.547 17.9538 142.86 18.3902 142.543 19.1194H142.441V15.5332H141.168V24.5822Z" fill="#F9F9FA"/>
<path id="Vector_14" d="M151.252 19.0411C152.202 19.0411 152.824 19.7045 152.854 20.7265H149.567C149.638 19.7104 150.302 19.0411 151.252 19.0411ZM152.848 22.8244C152.608 23.3324 152.077 23.6134 151.3 23.6134C150.271 23.6134 149.609 22.8901 149.567 21.7486V21.6768H154.163V21.2285C154.163 19.1844 153.069 17.9473 151.258 17.9473C149.423 17.9473 148.258 19.2682 148.258 21.3481C148.258 23.4281 149.399 24.7072 151.264 24.7072C152.752 24.7072 153.792 23.9899 154.085 22.8244H152.848Z" fill="#F9F9FA"/>
<path id="Vector_15" d="M67.7501 49.0625H70.6186L64.3128 31.5977H61.3839L55.0781 49.0625H57.8981L59.4958 44.3422H66.1525L67.7501 49.0625ZM62.7878 34.5024H62.8605L65.4626 42.1637H60.1856L62.7878 34.5024Z" fill="#F9F9FA"/>
<path id="Vector_16" d="M79.5512 35.7852C77.7235 35.7852 76.1018 36.6808 75.3635 38.0969H75.303V35.9183H72.7734V53.4194H75.3998V46.908H75.4482C76.2349 48.3603 77.7235 49.1955 79.6117 49.1955C82.9158 49.1955 85.1065 46.557 85.1065 42.4903C85.1065 38.4116 82.9038 35.7852 79.5512 35.7852ZM78.8855 46.9685C76.7917 46.9685 75.3877 45.1772 75.3756 42.4903C75.3877 39.8155 76.8038 38.0122 78.8855 38.0122C81.0157 38.0122 82.4196 39.7792 82.4196 42.4903C82.4196 45.2135 81.0157 46.9685 78.8855 46.9685Z" fill="#F9F9FA"/>
<path id="Vector_17" d="M94.4727 35.7852C92.6453 35.7852 91.0235 36.6808 90.2855 38.0969H90.2252V35.9183H87.6953V53.4194H90.3214V46.908H90.3703C91.1572 48.3603 92.6453 49.1955 94.5339 49.1955C97.838 49.1955 100.028 46.557 100.028 42.4903C100.028 38.4116 97.8257 35.7852 94.4727 35.7852ZM93.8073 46.9685C91.7133 46.9685 90.31 45.1772 90.2978 42.4903C90.31 39.8155 91.7255 38.0122 93.8073 38.0122C95.9372 38.0122 97.3414 39.7792 97.3414 42.4903C97.3414 45.2135 95.9372 46.9685 93.8073 46.9685Z" fill="#F9F9FA"/>
<path id="Vector_18" d="M108.316 44.1984C108.485 47.3574 111.099 49.3543 114.973 49.3543C119.112 49.3543 121.714 47.3089 121.714 44.0411C121.714 41.4873 120.226 40.0471 116.643 39.1999L114.718 38.7278C112.468 38.171 111.548 37.4449 111.548 36.2103C111.548 34.6611 112.988 33.5961 115.093 33.5961C117.2 33.5961 118.64 34.6491 118.797 36.3919H121.436C121.351 33.3782 118.821 31.3086 115.13 31.3086C111.402 31.3086 108.776 33.3782 108.776 36.3919C108.776 38.8246 110.264 40.3254 113.472 41.1L115.735 41.6447C117.999 42.2014 118.954 43.0123 118.954 44.3679C118.954 45.9291 117.369 47.0669 115.167 47.0669C112.866 47.0669 111.184 45.9291 110.991 44.1984H108.316Z" fill="#F9F9FA"/>
<path id="Vector_19" d="M125.163 32.9648V35.9181H123.348V37.9877H125.163V45.6006C125.163 48.1423 126.18 49.1468 128.806 49.1468C129.374 49.1468 129.992 49.0863 130.283 49.0136V46.944C130.113 46.9682 129.666 47.0045 129.387 47.0045C128.286 47.0045 127.777 46.472 127.777 45.3343V37.9877H130.294V35.9181H127.777V32.9648H125.163Z" fill="#F9F9FA"/>
<path id="Vector_20" d="M138.319 49.2208C142.119 49.2208 144.528 46.6307 144.528 42.4914C144.528 38.3522 142.107 35.75 138.319 35.75C134.531 35.75 132.098 38.3642 132.098 42.4914C132.098 46.6307 134.519 49.2208 138.319 49.2208ZM138.319 47.0422C136.092 47.0422 134.761 45.3599 134.761 42.4914C134.761 39.6351 136.092 37.9286 138.319 37.9286C140.546 37.9286 141.866 39.623 141.866 42.4914C141.866 45.3599 140.546 47.0422 138.319 47.0422Z" fill="#F9F9FA"/>
<path id="Vector_21" d="M147.133 49.0623H149.759V41.2195C149.759 39.3677 150.848 38.1695 152.579 38.1695C153.099 38.1695 153.559 38.2421 153.777 38.3268V35.8699C153.571 35.8214 153.244 35.7852 152.857 35.7852C151.308 35.7852 150.098 36.6687 149.686 38.1332H149.638V35.9183H147.133V49.0623Z" fill="#F9F9FA"/>
<path id="Vector_22" d="M160.869 37.8922C162.781 37.8922 164.076 39.2478 164.136 41.2933H157.468C157.613 39.272 158.98 37.8922 160.869 37.8922ZM164.124 45.2146C163.761 46.3645 162.563 47.0906 161.038 47.0906C158.883 47.0906 157.456 45.5898 157.456 43.3144V43.1571H166.763V42.2373C166.763 38.2553 164.488 35.75 160.88 35.75C157.201 35.75 154.805 38.4248 154.805 42.5399C154.805 46.6549 157.178 49.2208 160.99 49.2208C163.943 49.2208 166.255 47.5748 166.63 45.2146H164.124Z" fill="#F9F9FA"/>
<path id="Vector_23" d="M39.8356 32.131C39.7961 27.8452 43.4193 25.7602 43.585 25.6631C41.5331 22.7337 38.3526 22.3334 37.235 22.3015C34.5637 22.0263 31.9727 23.8666 30.612 23.8666C29.2241 23.8666 27.1287 22.3281 24.8703 22.3733C21.9642 22.4172 19.2454 24.0648 17.7543 26.6231C14.6771 31.8397 16.9721 39.5058 19.9203 43.7224C21.3951 45.7875 23.1185 48.0933 25.3741 48.0122C27.5809 47.9231 28.4052 46.6345 31.0682 46.6345C33.7069 46.6345 34.4809 48.0122 36.7814 47.9604C39.1497 47.9231 40.6408 45.8859 42.0641 43.8022C43.7683 41.4353 44.4527 39.1042 44.4799 38.9845C44.4242 38.9659 39.8803 37.2678 39.8356 32.131Z" fill="#F9F9FA"/>
<path id="Vector_24" d="M35.4905 19.5272C36.6774 18.0738 37.4895 16.0964 37.2641 14.0898C35.5462 14.1643 33.3978 15.2534 32.1607 16.6749C31.0661 17.9275 30.0884 19.9806 30.341 21.9114C32.2707 22.0524 34.252 20.958 35.4905 19.5272Z" fill="#F9F9FA"/>
</g>
<defs>
<filter id="filter0_b_4232_3027" x="-13.4453" y="-13.0254" width="213.359" height="89.2031" filterUnits="userSpaceOnUse" color-interpolation-filters="sRGB">
<feFlood flood-opacity="0" result="BackgroundImageFix"/>
<feGaussianBlur in="BackgroundImageFix" stdDeviation="7"/>
<feComposite in2="SourceAlpha" operator="in" result="effect1_backgroundBlur_4232_3027"/>
<feBlend mode="normal" in="SourceGraphic" in2="effect1_backgroundBlur_4232_3027" result="shape"/>
</filter>
<linearGradient id="paint0_linear_4232_3027" x1="0.919277" y1="4.03476" x2="186.059" y2="62.1777" gradientUnits="userSpaceOnUse">
<stop stop-color="#D5D5D5"/>
<stop offset="0.204" stop-color="#5467CC" stop-opacity="0.12"/>
<stop offset="0.404" stop-color="white"/>
<stop offset="0.68" stop-color="#5467CC" stop-opacity="0.47"/>
<stop offset="1" stop-color="white" stop-opacity="0"/>
</linearGradient>
<clipPath id="clip0_4232_3027">
<rect width="185.358" height="61.2031" fill="white" transform="translate(0.554688 0.974609)"/>
</clipPath>
</defs>
</svg>
