<svg width="186" height="63" viewBox="0 0 186 63" fill="none" xmlns="http://www.w3.org/2000/svg">
<g id="619cbf878e9721de86aa4bde_icon-google-play.svg" clip-path="url(#clip0_4232_3012)">
<g id="Vector" filter="url(#filter0_b_4232_3012)">
<path d="M175.726 0.974609H9.6473C4.32356 0.974609 0.0078125 5.29036 0.0078125 10.6141V52.5382C0.0078125 57.862 4.32356 62.1777 9.6473 62.1777H175.726C181.05 62.1777 185.366 57.862 185.366 52.5382V10.6141C185.366 5.29036 181.05 0.974609 175.726 0.974609Z" fill="#5467CC" fill-opacity="0.1"/>
<path d="M9.6473 1.22461H175.726C180.912 1.22461 185.116 5.42843 185.116 10.6141V52.5382C185.116 57.7239 180.912 61.9277 175.726 61.9277H9.6473C4.46163 61.9277 0.257812 57.7239 0.257812 52.5382V10.6141C0.257812 5.42843 4.46163 1.22461 9.6473 1.22461Z" stroke="url(#paint0_linear_4232_3012)" stroke-width="0.5"/>
</g>
<path id="Vector_2" d="M17.173 50.0162L30.1997 36.4843L17.1839 22.9766C16.8363 23.1868 16.6211 23.6738 16.6211 24.3111V48.6946C16.6257 49.3319 16.8331 49.7833 17.173 50.0162Z" fill="#F9F9FA"/>
<path id="Vector_3" d="M30.6648 36.11L34.545 32.0788L18.7434 23.0779C18.4773 22.9174 18.175 22.8325 17.8672 22.832L30.6632 36.1084L30.6648 36.11Z" fill="#F9F9FA"/>
<path id="Vector_4" d="M30.6646 36.8594L17.8281 50.194C18.1503 50.1996 18.4676 50.1122 18.7448 49.9416L34.5776 40.9165L30.6646 36.8594Z" fill="#F9F9FA"/>
<path id="Vector_5" d="M40.2681 35.3446L35.0097 32.3438L31.0234 36.4851L35.0393 40.6522L40.2665 37.6595C41.378 37.0238 41.378 35.9771 40.2681 35.3446Z" fill="#F9F9FA"/>
<path id="Vector_6" d="M86.4124 32.8534C83.1665 32.8534 80.5149 35.331 80.5149 38.7495C80.5149 42.1402 83.1665 44.6438 86.4124 44.6438C89.6653 44.6438 92.3163 42.1402 92.3163 38.7495C92.3163 35.331 89.6653 32.8534 86.4124 32.8534ZM86.4124 42.3221C84.6314 42.3221 83.0991 40.8476 83.0991 38.7495C83.0991 36.6236 84.6314 35.1751 86.4124 35.1751C88.193 35.1751 89.7327 36.6236 89.7327 38.7495C89.7327 40.8476 88.193 42.3221 86.4124 42.3221ZM73.5448 32.8534C70.292 32.8534 67.6473 35.331 67.6473 38.7495C67.6473 42.1402 70.292 44.6438 73.5448 44.6438C76.7958 44.6438 79.4421 42.1402 79.4421 38.7495C79.4421 35.331 76.7958 32.8534 73.5448 32.8534ZM73.5448 42.3221C71.7621 42.3221 70.2247 40.8476 70.2247 38.7495C70.2247 36.6236 71.7621 35.1751 73.5448 35.1751C75.3258 35.1751 76.858 36.6236 76.858 38.7495C76.858 40.8476 75.3258 42.3221 73.5448 42.3221ZM58.233 34.6605V37.1658H64.1977C64.0231 38.5658 63.5568 39.595 62.8417 40.3123C61.9711 41.1786 60.615 42.1402 58.233 42.1402C54.5622 42.1402 51.6877 39.1687 51.6877 35.4869C51.6877 31.8051 54.5622 28.8337 58.233 28.8337C60.2177 28.8337 61.6618 29.6116 62.7277 30.62L64.4879 28.8544C62.9971 27.4268 61.0141 26.3301 58.233 26.3301C53.1992 26.3301 48.9688 30.4381 48.9688 35.4869C48.9688 40.5358 53.1992 44.6438 58.233 44.6438C60.9536 44.6438 62.9971 43.7498 64.6036 42.0727C66.2499 40.4214 66.7629 38.0997 66.7629 36.225C66.7629 35.6429 66.716 35.1075 66.628 34.6605H58.233ZM120.845 36.6028C120.36 35.2842 118.862 32.8534 115.811 32.8534C112.789 32.8534 110.272 35.2427 110.272 38.7495C110.272 42.0518 112.763 44.6438 116.102 44.6438C118.802 44.6438 120.36 42.9927 121 42.031L118.996 40.6917C118.329 41.6724 117.417 42.3221 116.102 42.3221C114.794 42.3221 113.855 41.7209 113.255 40.5358L121.116 37.2733L120.845 36.6028ZM112.83 38.5658C112.763 36.2926 114.59 35.1283 115.9 35.1283C116.925 35.1283 117.796 35.6427 118.086 36.3793L112.83 38.5658ZM106.44 44.2852H109.024V26.959H106.44V44.2852ZM102.208 34.1667H102.121C101.541 33.4771 100.434 32.8534 99.0312 32.8534C96.0873 32.8534 93.3961 35.4453 93.3961 38.7685C93.3961 42.0727 96.0873 44.6438 99.0312 44.6438C100.434 44.6438 101.541 44.0149 102.121 43.3045H102.208V44.15C102.208 46.4042 101.007 47.6153 99.0705 47.6153C97.4923 47.6153 96.5122 46.4718 96.1083 45.5102L93.8612 46.451C94.5091 48.0137 96.2237 49.937 99.0705 49.937C102.101 49.937 104.657 48.1489 104.657 43.7983V33.212H102.208V34.1667ZM99.2524 42.3221C97.4714 42.3221 95.9806 40.8269 95.9806 38.7685C95.9806 36.6911 97.4714 35.1751 99.2524 35.1751C101.007 35.1751 102.391 36.6911 102.391 38.7685C102.391 40.8269 101.007 42.3221 99.2524 42.3221ZM132.944 26.959H126.763V44.2852H129.341V37.7203H132.944C135.806 37.7203 138.613 35.6429 138.613 32.3387C138.613 29.0364 135.799 26.959 132.944 26.959ZM133.011 35.3102H129.341V29.3691H133.011C134.936 29.3691 136.034 30.9717 136.034 32.3387C136.034 33.6799 134.936 35.3102 133.011 35.3102ZM148.943 32.8204C147.081 32.8204 145.144 33.6452 144.348 35.4731L146.635 36.4347C147.128 35.4731 148.033 35.1613 148.99 35.1613C150.326 35.1613 151.682 35.9669 151.703 37.3893V37.5713C151.237 37.3011 150.239 36.9007 149.011 36.9007C146.548 36.9007 144.037 38.2608 144.037 40.7991C144.037 43.1208 146.054 44.6161 148.323 44.6161C150.057 44.6161 151.014 43.8312 151.615 42.9181H151.703V44.2574H154.193V37.6111C154.193 34.5392 151.905 32.8204 148.943 32.8204ZM148.632 42.3152C147.789 42.3152 146.614 41.8959 146.614 40.8477C146.614 39.5067 148.079 38.992 149.347 38.992C150.482 38.992 151.014 39.2432 151.703 39.5743C151.501 41.1786 150.124 42.3152 148.632 42.3152ZM163.261 33.1999L160.299 40.7108H160.211L157.148 33.1999H154.368L158.971 43.6961L156.345 49.5367H159.038L166.129 33.1999H163.261ZM140.029 44.2852H142.614V26.959H140.029V44.2852Z" fill="#F9F9FA"/>
<path id="Vector_7" d="M53.0495 21.2389C52.3891 21.2389 51.78 21.085 51.2222 20.7773C50.6707 20.4631 50.2316 20.0336 49.9046 19.4885C49.5776 18.9371 49.4141 18.3216 49.4141 17.6419C49.4141 16.9623 49.5776 16.35 49.9046 15.8049C50.2316 15.2536 50.6707 14.8239 51.2222 14.5162C51.78 14.202 52.3891 14.0449 53.0495 14.0449C53.5881 14.0449 54.0786 14.1411 54.521 14.3335C54.9698 14.5194 55.3545 14.7855 55.6751 15.1317L54.7807 16.0069C54.5499 15.7633 54.2933 15.5806 54.0113 15.4587C53.7355 15.3369 53.4118 15.276 53.0399 15.276C52.6167 15.276 52.2288 15.3754 51.8762 15.5741C51.5235 15.7665 51.2414 16.0454 51.0298 16.4109C50.8246 16.7699 50.7221 17.1803 50.7221 17.6419C50.7221 18.1036 50.8279 18.5171 51.0394 18.8826C51.251 19.2417 51.5331 19.5206 51.8858 19.7193C52.2448 19.9117 52.636 20.0079 53.0591 20.0079C53.7003 20.0079 54.226 19.8187 54.6364 19.4404C54.7646 19.325 54.8769 19.1776 54.9731 18.998C55.0692 18.8185 55.1397 18.6229 55.1846 18.4113H53.0207V17.3053H56.3965C56.4413 17.4849 56.4638 17.6869 56.4638 17.9112C56.4638 18.3665 56.3932 18.7897 56.2522 19.1807C56.1175 19.5719 55.9091 19.9149 55.6271 20.2098C55.3193 20.5433 54.9473 20.7997 54.5114 20.9792C54.0754 21.1524 53.5881 21.2389 53.0495 21.2389Z" fill="#F9F9FA"/>
<path id="Vector_8" d="M57.8984 14.1973H62.2648V15.4283H59.1967V17.0249H61.9571V18.2559H59.1967V19.8524H62.2648V21.0835H57.8984V14.1973Z" fill="#F9F9FA"/>
<path id="Vector_9" d="M65.1852 15.4283H63.2617V14.1973H68.4072V15.4283H66.4836V21.0835H65.1852V15.4283Z" fill="#F9F9FA"/>
<path id="Vector_10" d="M72.082 14.1973H73.3804V21.0835H72.082V14.1973Z" fill="#F9F9FA"/>
<path id="Vector_11" d="M76.5368 15.4283H74.6133V14.1973H79.7587V15.4283H77.8352V21.0835H76.5368V15.4283Z" fill="#F9F9FA"/>
<path id="Vector_12" d="M86.4954 21.2389C85.8222 21.2389 85.2099 21.0819 84.6585 20.7676C84.1135 20.4471 83.6839 20.0111 83.3697 19.4596C83.0555 18.9083 82.8984 18.3024 82.8984 17.6419C82.8984 16.9815 83.0555 16.3756 83.3697 15.8242C83.6839 15.2728 84.1135 14.84 84.6585 14.5258C85.2099 14.2053 85.8222 14.0449 86.4954 14.0449C87.1687 14.0449 87.7776 14.2053 88.3231 14.5258C88.874 14.84 89.3068 15.2728 89.6215 15.8242C89.9354 16.3756 90.0928 16.9815 90.0928 17.6419C90.0928 18.3024 89.9354 18.9083 89.6215 19.4596C89.3068 20.0111 88.874 20.4471 88.3231 20.7676C87.7776 21.0819 87.1687 21.2389 86.4954 21.2389ZM86.4954 20.0079C86.9186 20.0079 87.3065 19.9085 87.6595 19.7097C88.0119 19.511 88.2873 19.2321 88.4866 18.873C88.6912 18.514 88.7944 18.1036 88.7944 17.6419C88.7944 17.1803 88.6912 16.7699 88.4866 16.4109C88.2873 16.0519 88.0119 15.7729 87.6595 15.5741C87.3065 15.3754 86.9186 15.276 86.4954 15.276C86.0723 15.276 85.6844 15.3754 85.3317 15.5741C84.9855 15.7729 84.7098 16.0519 84.5046 16.4109C84.3058 16.7699 84.2064 17.1803 84.2064 17.6419C84.2064 18.1036 84.3058 18.514 84.5046 18.873C84.7098 19.2321 84.9855 19.511 85.3317 19.7097C85.6844 19.9085 86.0723 20.0079 86.4954 20.0079Z" fill="#F9F9FA"/>
<path id="Vector_13" d="M91.5156 14.1973H93.0256L95.7955 18.8137H95.8724L95.7955 17.4865V14.1973H97.0842V21.0835H95.7185L92.7948 16.2074H92.7178L92.7948 17.5346V21.0835H91.5156V14.1973Z" fill="#F9F9FA"/>
</g>
<defs>
<filter id="filter0_b_4232_3012" x="-13.9922" y="-13.0254" width="213.359" height="89.2031" filterUnits="userSpaceOnUse" color-interpolation-filters="sRGB">
<feFlood flood-opacity="0" result="BackgroundImageFix"/>
<feGaussianBlur in="BackgroundImageFix" stdDeviation="7"/>
<feComposite in2="SourceAlpha" operator="in" result="effect1_backgroundBlur_4232_3012"/>
<feBlend mode="normal" in="SourceGraphic" in2="effect1_backgroundBlur_4232_3012" result="shape"/>
</filter>
<linearGradient id="paint0_linear_4232_3012" x1="0.372402" y1="4.03476" x2="185.512" y2="62.1777" gradientUnits="userSpaceOnUse">
<stop stop-color="#D5D5D5"/>
<stop offset="0.204" stop-color="#5467CC" stop-opacity="0.12"/>
<stop offset="0.404" stop-color="white"/>
<stop offset="0.68" stop-color="#5467CC" stop-opacity="0.47"/>
<stop offset="1" stop-color="white" stop-opacity="0"/>
</linearGradient>
<clipPath id="clip0_4232_3012">
<rect width="185.358" height="61.2031" fill="white" transform="translate(0.0078125 0.974609)"/>
</clipPath>
</defs>
</svg>
