<svg width="24" height="25" viewBox="0 0 24 25" fill="none" xmlns="http://www.w3.org/2000/svg">
<g id="Icon / Facebook">
<path id="Vector" d="M16.5 6.31836H13.5C12.9477 6.31836 12.5 6.76608 12.5 7.31836V10.3184H16.5C16.6137 10.3158 16.7216 10.3688 16.7892 10.4603C16.8568 10.5518 16.8758 10.6704 16.84 10.7784L16.1 12.9784C16.0318 13.1803 15.8431 13.3168 15.63 13.3184H12.5V20.8184C12.5 21.0945 12.2761 21.3184 12 21.3184H9.5C9.22386 21.3184 9 21.0945 9 20.8184V13.3184H7.5C7.22386 13.3184 7 13.0945 7 12.8184V10.8184C7 10.5423 7.22386 10.3184 7.5 10.3184H9V7.31836C9 5.10922 10.7909 3.31836 13 3.31836H16.5C16.7761 3.31836 17 3.54222 17 3.81836V5.81836C17 6.0945 16.7761 6.31836 16.5 6.31836Z" fill="#F5F5F6"/>
</g>
</svg>
