<svg width="188" height="52" viewBox="0 0 188 52" fill="none" xmlns="http://www.w3.org/2000/svg">
<g id="Group">
<path id="BG" d="M186.96 46.0029C186.96 48.774 184.573 51.0187 181.62 51.0187H6.88925C3.93828 51.0187 1.54297 48.774 1.54297 46.0029V6.00333C1.54297 3.23349 3.93828 0.980957 6.88925 0.980957H181.619C184.573 0.980957 186.958 3.23349 186.958 6.00333L186.96 46.0029Z" fill="#0B0D1A"/>
<g id="Icon">
<g id="Vector">
<path d="M42.3435 25.7191C42.3033 21.5292 46.0088 19.4908 46.1783 19.3959C44.0796 16.532 40.8269 16.1407 39.6838 16.1095C36.9519 15.8404 34.3019 17.6396 32.9102 17.6396C31.4908 17.6396 29.3477 16.1355 27.038 16.1797C24.0658 16.2226 21.2852 17.8333 19.7602 20.3345C16.613 25.4344 18.9602 32.9289 21.9755 37.0512C23.4838 39.0701 25.2463 41.3243 27.5533 41.245C29.8102 41.1579 30.6533 39.8982 33.3769 39.8982C36.0755 39.8982 36.8671 41.245 39.2199 41.1943C41.6421 41.1579 43.1671 39.1663 44.6227 37.1292C46.3658 34.8152 47.0658 32.5363 47.0935 32.4193C47.0366 32.4011 42.3894 30.741 42.3435 25.7191Z" fill="white"/>
<path d="M37.8991 13.3977C39.113 11.9768 39.9435 10.0437 39.713 8.08203C37.956 8.15483 35.7588 9.21953 34.4935 10.6092C33.3741 11.8338 32.3741 13.841 32.6324 15.7286C34.606 15.8664 36.6324 14.7965 37.8991 13.3977Z" fill="white"/>
</g>
</g>
<g id="Download on the">
<path id="D" d="M68.6241 13.0118C68.6241 14.5419 68.1338 15.6937 67.1546 16.4672C66.2477 17.1809 64.9588 17.5384 63.2893 17.5384C62.4615 17.5384 61.7532 17.5046 61.1602 17.437V9.0767C61.9338 8.9597 62.7671 8.8999 63.6671 8.8999C65.2574 8.8999 66.456 9.2236 67.2643 9.871C68.1699 10.6029 68.6241 11.6494 68.6241 13.0118ZM67.0893 13.0495C67.0893 12.0576 66.8088 11.2971 66.2477 10.7667C65.6866 10.2376 64.8671 9.9724 63.7879 9.9724C63.3296 9.9724 62.9393 10.001 62.6157 10.0608V16.4165C62.7949 16.4425 63.1227 16.4542 63.599 16.4542C64.7129 16.4542 65.5727 16.1643 66.1782 15.5845C66.7838 15.0047 67.0893 14.1597 67.0893 13.0495Z" fill="white"/>
<path id="o" d="M76.7602 14.3482C76.7602 15.2907 76.4727 16.0629 75.8977 16.6687C75.2949 17.2914 74.4963 17.6021 73.499 17.6021C72.5379 17.6021 71.7727 17.3044 71.2018 16.7064C70.6324 16.1097 70.3477 15.357 70.3477 14.4496C70.3477 13.5006 70.6407 12.7219 71.2296 12.1174C71.8185 11.5129 72.6102 11.21 73.6074 11.21C74.5685 11.21 75.3407 11.5077 75.9254 12.1044C76.481 12.6842 76.7602 13.433 76.7602 14.3482ZM75.2504 14.3924C75.2504 13.8269 75.1199 13.342 74.8602 12.9377C74.5546 12.4489 74.1199 12.2045 73.5546 12.2045C72.9699 12.2045 72.5254 12.4489 72.2199 12.9377C71.9588 13.342 71.8296 13.8347 71.8296 14.4171C71.8296 14.9826 71.9602 15.4675 72.2199 15.8718C72.5352 16.3606 72.974 16.605 73.5407 16.605C74.0963 16.605 74.5324 16.3567 74.8463 15.8588C75.1157 15.4467 75.2504 14.9579 75.2504 14.3924Z" fill="white"/>
<path id="w" d="M87.6736 11.335L85.625 17.4632H84.2917L83.4431 14.8021C83.2278 14.1378 83.0528 13.4774 82.9167 12.8222H82.8903C82.7639 13.4956 82.5889 14.1547 82.3639 14.8021L81.4625 17.4632H80.1139L78.1875 11.335H79.6833L80.4236 14.2483C80.6028 14.9373 80.75 15.5938 80.8681 16.2152H80.8944C81.0028 15.703 81.1819 15.0504 81.4347 14.2613L82.3639 11.3363H83.55L84.4403 14.1989C84.6556 14.897 84.8306 15.5691 84.9653 16.2165H85.0056C85.1042 15.586 85.2528 14.9139 85.45 14.1989L86.2444 11.3363H87.6736V11.335Z" fill="white"/>
<path id="n" d="M95.2193 17.463H93.7638V13.953C93.7638 12.8714 93.3249 12.3306 92.4443 12.3306C92.0124 12.3306 91.6638 12.4788 91.393 12.7765C91.1249 13.0742 90.9888 13.4252 90.9888 13.8269V17.4617H89.5332V13.0859C89.5332 12.5477 89.5152 11.964 89.4805 11.3322H90.7596L90.8277 12.2903H90.868C91.0374 11.9926 91.2902 11.7469 91.6221 11.5506C92.0166 11.3218 92.4582 11.2061 92.9416 11.2061C93.5527 11.2061 94.061 11.3907 94.4652 11.7612C94.968 12.2149 95.2193 12.8922 95.2193 13.7918V17.463Z" fill="white"/>
<path id="l" d="M99.2315 17.463H97.7773V8.52295H99.2315V17.463Z" fill="white"/>
<path id="o_2" d="M107.803 14.3482C107.803 15.2907 107.516 16.0629 106.941 16.6687C106.338 17.2914 105.538 17.6021 104.542 17.6021C103.58 17.6021 102.814 17.3044 102.245 16.7064C101.675 16.1097 101.391 15.357 101.391 14.4496C101.391 13.5006 101.684 12.7219 102.273 12.1174C102.861 11.5129 103.653 11.21 104.649 11.21C105.611 11.21 106.382 11.5077 106.968 12.1044C107.524 12.6842 107.803 13.433 107.803 14.3482ZM106.292 14.3924C106.292 13.8269 106.161 13.342 105.902 12.9377C105.598 12.4489 105.161 12.2045 104.598 12.2045C104.011 12.2045 103.567 12.4489 103.263 12.9377C103.002 13.342 102.873 13.8347 102.873 14.4171C102.873 14.9826 103.003 15.4675 103.263 15.8718C103.578 16.3606 104.017 16.605 104.584 16.605C105.139 16.605 105.574 16.3567 105.888 15.8588C106.159 15.4467 106.292 14.9579 106.292 14.3924Z" fill="white"/>
<path id="a" d="M114.848 17.463H113.541L113.432 16.7571H113.392C112.945 17.32 112.307 17.6021 111.48 17.6021C110.862 17.6021 110.362 17.4162 109.985 17.047C109.643 16.7116 109.473 16.2943 109.473 15.799C109.473 15.0502 109.806 14.4795 110.477 14.0843C111.146 13.6891 112.088 13.4954 113.3 13.5045V13.3901C113.3 12.5828 112.848 12.1798 111.941 12.1798C111.295 12.1798 110.725 12.3319 110.234 12.6335L109.938 11.7391C110.546 11.3868 111.298 11.21 112.184 11.21C113.895 11.21 114.753 12.055 114.753 13.745V16.0018C114.753 16.6141 114.785 17.1016 114.848 17.463ZM113.337 15.357V14.4119C111.731 14.3859 110.928 14.798 110.928 15.6469C110.928 15.9667 111.02 16.2059 111.207 16.3658C111.395 16.5257 111.634 16.605 111.918 16.605C112.238 16.605 112.537 16.5101 112.809 16.3216C113.082 16.1318 113.25 15.8913 113.313 15.5962C113.328 15.5299 113.337 15.4493 113.337 15.357Z" fill="white"/>
<path id="d" d="M123.117 17.463H121.826L121.757 16.4789H121.717C121.305 17.2277 120.602 17.6021 119.614 17.6021C118.826 17.6021 118.169 17.3123 117.648 16.7325C117.127 16.1527 116.867 15.4 116.867 14.4757C116.867 13.4837 117.149 12.6803 117.716 12.0667C118.264 11.4947 118.937 11.2087 119.737 11.2087C120.616 11.2087 121.231 11.4856 121.581 12.0407H121.609V8.52295H123.066V15.8121C123.066 16.4088 123.082 16.9586 123.117 17.463ZM121.609 14.8786V13.8569C121.609 13.6801 121.595 13.5371 121.569 13.4279C121.487 13.1003 121.31 12.8246 121.042 12.6023C120.771 12.38 120.445 12.2682 120.069 12.2682C119.526 12.2682 119.101 12.4697 118.788 12.874C118.478 13.2783 118.321 13.7944 118.321 14.4249C118.321 15.0307 118.47 15.5222 118.769 15.9004C119.084 16.3035 119.509 16.505 120.041 16.505C120.519 16.505 120.901 16.3372 121.191 16.0005C121.471 15.6898 121.609 15.3154 121.609 14.8786Z" fill="white"/>
<path id="o_3" d="M135.565 14.3482C135.565 15.2907 135.277 16.0629 134.702 16.6687C134.1 17.2914 133.302 17.6021 132.304 17.6021C131.344 17.6021 130.579 17.3044 130.007 16.7064C129.437 16.1097 129.152 15.357 129.152 14.4496C129.152 13.5006 129.445 12.7219 130.034 12.1174C130.623 11.5129 131.415 11.21 132.413 11.21C133.373 11.21 134.147 11.5077 134.73 12.1044C135.286 12.6842 135.565 13.433 135.565 14.3482ZM134.057 14.3924C134.057 13.8269 133.926 13.342 133.666 12.9377C133.359 12.4489 132.926 12.2045 132.359 12.2045C131.776 12.2045 131.332 12.4489 131.025 12.9377C130.763 13.342 130.634 13.8347 130.634 14.4171C130.634 14.9826 130.765 15.4675 131.025 15.8718C131.34 16.3606 131.779 16.605 132.345 16.605C132.901 16.605 133.338 16.3567 133.652 15.8588C133.92 15.4467 134.057 14.9579 134.057 14.3924Z" fill="white"/>
<path id="n_2" d="M143.394 17.463H141.94V13.953C141.94 12.8714 141.501 12.3306 140.619 12.3306C140.187 12.3306 139.838 12.4788 139.569 12.7765C139.299 13.0742 139.165 13.4252 139.165 13.8269V17.4617H137.708V13.0859C137.708 12.5477 137.691 11.964 137.656 11.3322H138.934L139.002 12.2903H139.042C139.213 11.9926 139.466 11.7469 139.797 11.5506C140.192 11.3218 140.633 11.2061 141.117 11.2061C141.727 11.2061 142.235 11.3907 142.64 11.7612C143.144 12.2149 143.394 12.8922 143.394 13.7918V17.463Z" fill="white"/>
<path id="t" d="M153.187 12.3553H151.584V15.3323C151.584 16.0889 151.869 16.4672 152.433 16.4672C152.694 16.4672 152.91 16.4464 153.081 16.4035L153.119 17.437C152.831 17.5384 152.453 17.5891 151.988 17.5891C151.413 17.5891 150.966 17.4253 150.642 17.0977C150.317 16.7701 150.156 16.2189 150.156 15.4454V12.3553H149.199V11.3348H150.156V10.2116L151.583 9.80859V11.3335H153.185V12.3553H153.187Z" fill="white"/>
<path id="h" d="M160.893 17.463H159.436V13.979C159.436 12.8805 158.997 12.3306 158.118 12.3306C157.443 12.3306 156.982 12.6491 156.729 13.2861C156.686 13.42 156.661 13.5838 156.661 13.7762V17.4618H155.207V8.52295H156.661V12.2162H156.689C157.147 11.5441 157.804 11.2087 158.656 11.2087C159.258 11.2087 159.757 11.3933 160.153 11.7638C160.646 12.2253 160.893 12.9117 160.893 13.8191V17.463Z" fill="white"/>
<path id="e" d="M168.84 14.1089C168.84 14.3533 168.821 14.5587 168.786 14.7264H164.421C164.44 15.3322 164.649 15.7937 165.053 16.1135C165.422 16.3995 165.899 16.5425 166.482 16.5425C167.128 16.5425 167.717 16.4463 168.247 16.2526L168.475 17.199C167.854 17.4512 167.124 17.5773 166.278 17.5773C165.264 17.5773 164.465 17.2978 163.888 16.7388C163.307 16.1798 163.02 15.4297 163.02 14.4885C163.02 13.5642 163.288 12.7946 163.828 12.181C164.392 11.5258 165.154 11.1982 166.117 11.1982C167.058 11.1982 167.774 11.5258 168.257 12.181C168.647 12.701 168.84 13.3445 168.84 14.1089ZM167.451 13.7566C167.463 13.3523 167.367 13.0039 167.17 12.7101C166.917 12.3318 166.532 12.142 166.011 12.142C165.536 12.142 165.149 12.3266 164.853 12.6971C164.611 12.9922 164.468 13.3445 164.421 13.7566H167.451Z" fill="white"/>
</g>
<g id="App Store">
<path id="A" d="M75.0065 40.9552H71.8523L70.1246 35.8735H64.119L62.4732 40.9552H59.4023L65.3523 23.6548H69.0273L75.0065 40.9552ZM69.6037 33.7415L68.0412 29.224C67.876 28.7625 67.5662 27.6757 67.1093 25.9649H67.0537C66.8718 26.7007 66.5787 27.7875 66.176 29.224L64.6412 33.7415H69.6037Z" fill="white"/>
<path id="p" d="M90.3074 34.5647C90.3074 36.6863 89.6949 38.3633 88.4699 39.5944C87.3727 40.6903 86.0102 41.2376 84.3838 41.2376C82.6282 41.2376 81.3671 40.6474 80.599 39.467H80.5435V46.0385H77.5824V32.5874C77.5824 31.2536 77.5449 29.8847 77.4727 28.4807H80.0768L80.2421 30.458H80.2977C81.2852 28.9682 82.7838 28.2246 84.7949 28.2246C86.3671 28.2246 87.6796 28.8057 88.7296 29.9692C89.7824 31.134 90.3074 32.6654 90.3074 34.5647ZM87.2907 34.6661C87.2907 33.4519 86.999 32.4509 86.4129 31.6631C85.7727 30.8415 84.9129 30.4307 83.8352 30.4307C83.1046 30.4307 82.4407 30.6595 81.8477 31.1106C81.2532 31.5656 80.8643 32.1597 80.6824 32.8955C80.5907 33.2387 80.5449 33.5195 80.5449 33.7405V35.8205C80.5449 36.7279 80.8421 37.4936 81.4365 38.1189C82.031 38.7442 82.8032 39.0562 83.7532 39.0562C84.8685 39.0562 85.7365 38.6532 86.3574 37.8498C86.9796 37.0451 87.2907 35.9843 87.2907 34.6661Z" fill="white"/>
<path id="p_2" d="M105.638 34.5647C105.638 36.6863 105.026 38.3633 103.799 39.5944C102.703 40.6903 101.341 41.2376 99.7144 41.2376C97.9589 41.2376 96.6977 40.6474 95.9311 39.467H95.8755V46.0385H92.9144V32.5874C92.9144 31.2536 92.8769 29.8847 92.8047 28.4807H95.4089L95.5741 30.458H95.6297C96.6158 28.9682 98.1144 28.2246 100.127 28.2246C101.698 28.2246 103.01 28.8057 104.063 29.9692C105.112 31.134 105.638 32.6654 105.638 34.5647ZM102.621 34.6661C102.621 33.4519 102.328 32.4509 101.742 31.6631C101.102 30.8415 100.245 30.4307 99.1658 30.4307C98.4339 30.4307 97.7714 30.6595 97.1769 31.1106C96.5825 31.5656 96.195 32.1597 96.013 32.8955C95.9227 33.2387 95.8755 33.5195 95.8755 33.7405V35.8205C95.8755 36.7279 96.1727 37.4936 96.7644 38.1189C97.3589 38.7429 98.1311 39.0562 99.0839 39.0562C100.199 39.0562 101.067 38.6532 101.688 37.8498C102.31 37.0451 102.621 35.9843 102.621 34.6661Z" fill="white"/>
<path id="S" d="M122.775 36.1037C122.775 37.5753 122.229 38.7726 121.134 39.6969C119.929 40.707 118.253 41.2114 116.099 41.2114C114.11 41.2114 112.516 40.8526 111.309 40.1337L111.995 37.8236C113.295 38.5594 114.721 38.9286 116.275 38.9286C117.391 38.9286 118.259 38.692 118.882 38.2214C119.503 37.7508 119.813 37.119 119.813 36.3312C119.813 35.6292 119.557 35.0377 119.045 34.558C118.535 34.0783 117.684 33.6324 116.495 33.2203C113.259 32.0906 111.642 30.4357 111.642 28.2595C111.642 26.8373 112.209 25.6712 113.343 24.7638C114.474 23.8551 115.982 23.4014 117.868 23.4014C119.55 23.4014 120.947 23.6757 122.063 24.223L121.322 26.4824C120.281 25.952 119.103 25.6868 117.785 25.6868C116.743 25.6868 115.929 25.9273 115.346 26.4057C114.853 26.8334 114.606 27.3547 114.606 27.9722C114.606 28.656 114.888 29.2215 115.454 29.6661C115.947 30.0769 116.843 30.5215 118.143 31.0012C119.734 31.6005 120.902 32.3012 121.653 33.1046C122.402 33.9054 122.775 34.9077 122.775 36.1037Z" fill="white"/>
<path id="t_2" d="M132.566 30.5604H129.302V36.6171C129.302 38.1576 129.877 38.9272 131.03 38.9272C131.559 38.9272 131.998 38.8843 132.345 38.7985L132.427 40.9032C131.844 41.1073 131.076 41.21 130.124 41.21C128.955 41.21 128.041 40.8759 127.381 40.209C126.724 39.5408 126.394 38.4202 126.394 36.8459V30.5578H124.449V28.4778H126.394V26.1937L129.302 25.3721V28.4778H132.566V30.5604Z" fill="white"/>
<path id="o_4" d="M147.292 34.6151C147.292 36.5326 146.706 38.1069 145.537 39.338C144.311 40.6055 142.683 41.2373 140.654 41.2373C138.698 41.2373 137.141 40.6302 135.98 39.416C134.819 38.2018 134.238 36.6691 134.238 34.8218C134.238 32.8887 134.836 31.3053 136.034 30.0742C137.23 28.8418 138.844 28.2256 140.873 28.2256C142.829 28.2256 144.402 28.8327 145.59 30.0482C146.726 31.2273 147.292 32.7496 147.292 34.6151ZM144.22 34.7048C144.22 33.5543 143.958 32.5676 143.426 31.7447C142.805 30.7489 141.917 30.2523 140.767 30.2523C139.577 30.2523 138.673 30.7502 138.052 31.7447C137.52 32.5689 137.258 33.5712 137.258 34.7568C137.258 35.9073 137.52 36.894 138.052 37.7156C138.692 38.7114 139.587 39.208 140.741 39.208C141.872 39.208 142.759 38.701 143.399 37.6896C143.945 36.8511 144.22 35.854 144.22 34.7048Z" fill="white"/>
<path id="r" d="M156.916 30.9182C156.623 30.8675 156.31 30.8415 155.982 30.8415C154.941 30.8415 154.135 31.2094 153.569 31.9465C153.075 32.5965 152.828 33.4181 152.828 34.41V40.9555H149.868L149.896 32.4093C149.896 30.9715 149.859 29.6624 149.785 28.482H152.364L152.473 30.8688H152.555C152.867 30.0485 153.36 29.3881 154.035 28.8928C154.695 28.4469 155.407 28.2246 156.175 28.2246C156.449 28.2246 156.696 28.2428 156.916 28.2753V30.9182Z" fill="white"/>
<path id="e_2" d="M170.161 34.1279C170.161 34.6245 170.126 35.0431 170.053 35.385H161.169C161.204 36.6174 161.633 37.5599 162.458 38.2099C163.207 38.791 164.175 39.0822 165.364 39.0822C166.679 39.0822 167.879 38.8859 168.958 38.492L169.422 40.416C168.161 40.9308 166.672 41.1869 164.954 41.1869C162.887 41.1869 161.265 40.6175 160.084 39.48C158.907 38.3425 158.316 36.815 158.316 34.8988C158.316 33.0177 158.865 31.4512 159.964 30.2019C161.114 28.8681 162.668 28.2012 164.623 28.2012C166.544 28.2012 167.998 28.8681 168.986 30.2019C169.768 31.2614 170.161 32.5718 170.161 34.1279ZM167.337 33.409C167.357 32.5874 167.164 31.8776 166.762 31.2783C166.25 30.5074 165.462 30.1226 164.403 30.1226C163.434 30.1226 162.647 30.4983 162.046 31.2523C161.553 31.8516 161.259 32.5705 161.169 33.4077H167.337V33.409Z" fill="white"/>
</g>
</g>
</svg>
