<svg width="188" height="52" viewBox="0 0 188 52" fill="none" xmlns="http://www.w3.org/2000/svg">
<g id="Group">
<path id="BG" d="M180.556 52H6.94444C3.12674 52 0 49.0734 0 45.5V6.5C0 2.92663 3.12674 1.90735e-06 6.94444 1.90735e-06H180.556C184.373 1.90735e-06 187.5 2.92663 187.5 6.5V45.5C187.5 49.0734 184.373 52 180.556 52Z" fill="#0B0D1A"/>
<g id="Icon">
<path id="Vector" d="M14.4918 9.80044C14.0838 10.2002 13.8477 10.8226 13.8477 11.6286V40.3781C13.8477 41.1841 14.0838 41.8064 14.4918 42.2062L14.5924 42.2939L31.8042 26.1902V25.8099L14.5924 9.70619L14.4918 9.80044Z" fill="url(#paint0_linear_4306_2)"/>
<path id="Vector_2" d="M37.5356 31.5605L31.8047 26.1899V25.8097L37.5425 20.439L37.671 20.5089L44.4661 24.1278C46.4054 25.1548 46.4054 26.8448 44.4661 27.8783L37.671 31.4907L37.5356 31.5605Z" fill="url(#paint1_linear_4306_2)"/>
<path id="Vector_3" d="M37.671 31.4907L31.8047 25.9998L14.4922 42.206C15.1363 42.8397 16.1866 42.9161 17.3811 42.2823L37.671 31.4907Z" fill="url(#paint2_linear_4306_2)"/>
<path id="Vector_4" d="M37.671 20.5091L17.3811 9.71751C16.1866 9.09026 15.1363 9.16663 14.4922 9.80038L31.8047 26L37.671 20.5091Z" fill="url(#paint3_linear_4306_2)"/>
</g>
<g id="GET IT ON">
<path id="G" d="M65.8572 13.3172C65.8572 14.4027 65.51 15.2721 64.826 15.9204C64.0395 16.6891 63.0152 17.0758 61.76 17.0758C60.5603 17.0758 59.536 16.6826 58.6957 15.9074C57.8537 15.1209 57.4336 14.1557 57.4336 13.0003C57.4336 11.8449 57.8537 10.8797 58.6957 10.0997C59.536 9.31806 60.5603 8.9248 61.76 8.9248C62.3572 8.9248 62.9266 9.04018 63.47 9.25468C64.0117 9.4708 64.4527 9.7633 64.7721 10.1241L64.0464 10.8098C63.4891 10.1939 62.7305 9.89006 61.76 9.89006C60.885 9.89006 60.1263 10.1761 59.4822 10.7529C58.8451 11.3314 58.5256 12.0806 58.5256 13.0003C58.5256 13.9201 58.8451 14.6757 59.4822 15.2542C60.1263 15.8245 60.885 16.117 61.76 16.117C62.6888 16.117 63.4701 15.8246 64.0864 15.2477C64.4926 14.8658 64.7235 14.3393 64.7843 13.6666H61.76V12.7273H65.7947C65.8433 12.9304 65.8572 13.1271 65.8572 13.3172Z" fill="white" stroke="white" stroke-width="0.16" stroke-miterlimit="10"/>
<path id="E" d="M72.2574 10.0606H68.4674V12.5306H71.8841V13.4699H68.4674V15.9399H72.2574V16.897H67.3945V9.10352H72.2574V10.0606Z" fill="white" stroke="white" stroke-width="0.16" stroke-miterlimit="10"/>
<path id="T" d="M76.7765 16.897H75.7036V10.0606H73.3789V9.10352H79.1029V10.0606H76.7765V16.897Z" fill="white" stroke="white" stroke-width="0.16" stroke-miterlimit="10"/>
<path id="I" d="M83.2461 16.897V9.10352H84.3173V16.897H83.2461Z" fill="white" stroke="white" stroke-width="0.16" stroke-miterlimit="10"/>
<path id="T_2" d="M89.0655 16.897H88.0013V10.0606H85.668V9.10352H91.3989V10.0606H89.0655V16.897Z" fill="white" stroke="white" stroke-width="0.16" stroke-miterlimit="10"/>
<path id="O" d="M102.233 15.8944C101.412 16.6826 100.395 17.0758 99.181 17.0758C97.9605 17.0758 96.9431 16.6826 96.122 15.8944C95.3025 15.1079 94.8945 14.1427 94.8945 13.0003C94.8945 11.8579 95.3025 10.8927 96.122 10.1062C96.9431 9.31805 97.9605 8.9248 99.181 8.9248C100.388 8.9248 101.405 9.31805 102.226 10.1127C103.053 10.9057 103.461 11.8644 103.461 13.0003C103.461 14.1427 103.053 15.1079 102.233 15.8944ZM96.9154 15.2412C97.5334 15.8246 98.2852 16.117 99.181 16.117C100.07 16.117 100.829 15.8246 101.44 15.2412C102.056 14.6578 102.368 13.9087 102.368 13.0003C102.368 12.0919 102.056 11.3428 101.44 10.7594C100.829 10.1761 100.07 9.88355 99.181 9.88355C98.2852 9.88355 97.5334 10.1761 96.9154 10.7594C96.299 11.3428 95.9865 12.0919 95.9865 13.0003C95.9865 13.9087 96.299 14.6578 96.9154 15.2412Z" fill="white" stroke="white" stroke-width="0.16" stroke-miterlimit="10"/>
<path id="N" d="M104.965 16.897V9.10352H106.267L110.316 15.1648H110.362L110.316 13.6665V9.10352H111.387V16.897H110.269L106.029 10.5368H105.982L106.029 12.0415V16.897H104.965Z" fill="white" stroke="white" stroke-width="0.16" stroke-miterlimit="10"/>
</g>
<g id="Google Play">
<path id="Google Play_2" d="M94.6319 28.2783C91.3698 28.2783 88.7048 30.602 88.7048 33.8082C88.7048 36.9883 91.3698 39.3364 94.6319 39.3364C97.901 39.3364 100.566 36.9883 100.566 33.8082C100.566 30.602 97.901 28.2783 94.6319 28.2783ZM94.6319 37.1589C92.842 37.1589 91.3021 35.776 91.3021 33.8082C91.3021 31.8143 92.842 30.4558 94.6319 30.4558C96.4219 30.4558 97.9687 31.8143 97.9687 33.8082C97.9687 35.776 96.4219 37.1589 94.6319 37.1589ZM81.6996 28.2783C78.4305 28.2783 75.7726 30.602 75.7726 33.8082C75.7726 36.9883 78.4305 39.3364 81.6996 39.3364C84.967 39.3364 87.6267 36.9883 87.6267 33.8082C87.6267 30.602 84.967 28.2783 81.6996 28.2783ZM81.6996 37.1589C79.908 37.1589 78.3628 35.776 78.3628 33.8082C78.3628 31.8143 79.908 30.4558 81.6996 30.4558C83.4896 30.4558 85.0295 31.8143 85.0295 33.8082C85.0295 35.776 83.4896 37.1589 81.6996 37.1589ZM66.3108 29.9732V32.3229H72.3055C72.1302 33.6359 71.6614 34.6012 70.9427 35.2739C70.0677 36.0864 68.7049 36.9883 66.3108 36.9883C62.6215 36.9883 59.7326 34.2014 59.7326 30.7483C59.7326 27.2952 62.6215 24.5083 66.3108 24.5083C68.3055 24.5083 69.7569 25.2379 70.8281 26.1837L72.5972 24.5278C71.099 23.1888 69.1059 22.1602 66.3108 22.1602C61.2517 22.1602 57 26.013 57 30.7483C57 35.4835 61.2517 39.3364 66.3108 39.3364C69.0451 39.3364 71.0989 38.4979 72.7135 36.9249C74.368 35.3763 74.8837 33.1988 74.8837 31.4405C74.8837 30.8945 74.8351 30.3924 74.7483 29.9732H66.3108ZM129.238 31.7948C128.75 30.5582 127.245 28.2783 124.179 28.2783C121.141 28.2783 118.611 30.5192 118.611 33.8082C118.611 36.9054 121.115 39.3364 124.47 39.3364C127.184 39.3364 128.75 37.7878 129.394 36.8859L127.38 35.6298C126.708 36.5495 125.793 37.1589 124.47 37.1589C123.156 37.1589 122.214 36.595 121.609 35.4835L129.51 32.4237L129.238 31.7948ZM121.182 33.6359C121.115 31.5039 122.951 30.4119 124.267 30.4119C125.299 30.4119 126.174 30.8945 126.465 31.5852L121.182 33.6359ZM114.76 39H117.358V22.75H114.76V39ZM110.507 29.51H110.42C109.837 28.8633 108.724 28.2783 107.314 28.2783C104.356 28.2783 101.651 30.7093 101.651 33.826C101.651 36.9249 104.356 39.3364 107.314 39.3364C108.724 39.3364 109.837 38.7465 110.42 38.0803H110.507V38.8733C110.507 40.9874 109.3 42.1233 107.354 42.1233C105.767 42.1233 104.783 41.0508 104.377 40.1489L102.118 41.0313C102.769 42.497 104.493 44.3008 107.354 44.3008C110.399 44.3008 112.969 42.6238 112.969 38.5434V28.6147H110.507V29.51ZM107.536 37.1589C105.747 37.1589 104.248 35.7565 104.248 33.826C104.248 31.8777 105.747 30.4558 107.536 30.4558C109.3 30.4558 110.691 31.8777 110.691 33.826C110.691 35.7565 109.3 37.1589 107.536 37.1589ZM141.398 22.75H135.186V39H137.776V32.8429H141.398C144.274 32.8429 147.095 30.8945 147.095 27.7957C147.095 24.6984 144.267 22.75 141.398 22.75ZM141.465 30.5825H137.776V25.0104H141.465C143.399 25.0104 144.503 26.5135 144.503 27.7957C144.503 29.0534 143.399 30.5825 141.465 30.5825ZM157.477 28.2474C155.606 28.2474 153.66 29.0209 152.859 30.7353L155.158 31.6372C155.653 30.7353 156.562 30.4428 157.524 30.4428C158.868 30.4428 160.231 31.1984 160.252 32.5325V32.7032C159.783 32.4497 158.779 32.0743 157.545 32.0743C155.069 32.0743 152.547 33.3499 152.547 35.7305C152.547 37.908 154.575 39.3104 156.854 39.3104C158.597 39.3104 159.559 38.5743 160.163 37.7179H160.252V38.974H162.753V32.7405C162.753 29.8594 160.455 28.2474 157.477 28.2474ZM157.165 37.1524C156.318 37.1524 155.137 36.7592 155.137 35.776C155.137 34.5183 156.609 34.0357 157.884 34.0357C159.024 34.0357 159.559 34.2713 160.252 34.5817C160.049 36.0864 158.665 37.1524 157.165 37.1524ZM171.868 28.6033L168.891 35.6477H168.802L165.724 28.6033H162.931L167.556 38.4475L164.917 43.9254H167.623L174.75 28.6033H171.868ZM148.519 39H151.116V22.75H148.519V39Z" fill="white"/>
</g>
</g>
<defs>
<linearGradient id="paint0_linear_4306_2" x1="30.276" y1="40.6775" x2="8.50656" y2="17.4195" gradientUnits="userSpaceOnUse">
<stop stop-color="#00A0FF"/>
<stop offset="0.0066" stop-color="#00A1FF"/>
<stop offset="0.2601" stop-color="#00BEFF"/>
<stop offset="0.5122" stop-color="#00D2FF"/>
<stop offset="0.7604" stop-color="#00DFFF"/>
<stop offset="1" stop-color="#00E3FF"/>
</linearGradient>
<linearGradient id="paint1_linear_4306_2" x1="46.9913" y1="25.998" x2="13.3846" y2="25.998" gradientUnits="userSpaceOnUse">
<stop stop-color="#FFE000"/>
<stop offset="0.4087" stop-color="#FFBD00"/>
<stop offset="0.7754" stop-color="#FFA500"/>
<stop offset="1" stop-color="#FF9C00"/>
</linearGradient>
<linearGradient id="paint2_linear_4306_2" x1="34.4811" y1="23.0149" x2="4.95988" y2="-8.52482" gradientUnits="userSpaceOnUse">
<stop stop-color="#FF3A44"/>
<stop offset="1" stop-color="#C31162"/>
</linearGradient>
<linearGradient id="paint3_linear_4306_2" x1="10.1343" y1="51.7709" x2="23.3168" y2="37.6872" gradientUnits="userSpaceOnUse">
<stop stop-color="#32A071"/>
<stop offset="0.0685" stop-color="#2DA771"/>
<stop offset="0.4762" stop-color="#15CF74"/>
<stop offset="0.8009" stop-color="#06E775"/>
<stop offset="1" stop-color="#00F076"/>
</linearGradient>
</defs>
</svg>
