<svg width="100" height="33" viewBox="0 0 100 33" fill="none" xmlns="http://www.w3.org/2000/svg">
<g id="Group 14">
<path id="Vector" d="M51.9762 10.5484C51.9197 15.0061 55.9489 17.4936 58.9841 18.9726C62.1025 20.49 63.1499 21.4632 63.1376 22.8203C63.1143 24.8971 60.6501 25.8137 58.3442 25.8493C54.3212 25.9116 51.982 24.7631 50.1224 23.8945L48.6731 30.6759C50.5389 31.5357 53.9937 32.2855 57.5762 32.3184C65.9858 32.3184 71.4875 28.1672 71.5173 21.731C71.5502 13.5627 60.2189 13.1105 60.2963 9.4595C60.323 8.35242 61.3794 7.17102 63.6942 6.87064C64.84 6.7189 68.0029 6.60277 71.5889 8.2541L72.9964 1.69292C71.0679 0.990736 68.5893 0.318359 65.5035 0.318359C57.5882 0.318359 52.0211 4.52603 51.9762 10.5484ZM86.5205 0.883511C84.9849 0.883511 83.6909 1.77924 83.1134 3.1538L71.1008 31.8364H79.5041L81.1764 27.215H91.4451L92.4151 31.8364H99.8217L93.3585 0.883511H86.5205ZM87.6961 9.24505L90.1213 20.8682H83.4796L87.6961 9.24505ZM41.7876 0.883898L35.1637 31.836H43.1714L49.7922 0.883123L41.7876 0.883898ZM29.9414 0.883898L21.6066 21.9513L18.2351 4.03791C17.8394 2.0382 16.2772 0.883511 14.5422 0.883511H0.917398L0.726562 1.78234C3.52368 2.38929 6.70169 3.36825 8.62708 4.41571C9.80538 5.05557 10.1414 5.61492 10.5285 7.13541L16.9143 31.8364H25.3765L38.3502 0.883511L29.9414 0.883898Z" fill="url(#paint0_linear_4232_2956)"/>
</g>
<defs>
<linearGradient id="paint0_linear_4232_2956" x1="4556.53" y1="96.5104" x2="4649.15" y2="-3189.94" gradientUnits="userSpaceOnUse">
<stop stop-color="#222357"/>
<stop offset="1" stop-color="#254AA5"/>
</linearGradient>
</defs>
</svg>
