<svg width="24" height="25" viewBox="0 0 24 25" fill="none" xmlns="http://www.w3.org/2000/svg">
<g id="Icon / Instagram">
<path id="Vector" fill-rule="evenodd" clip-rule="evenodd" d="M16 3.31836H8C5.23858 3.31836 3 5.55694 3 8.31836V16.3184C3 19.0798 5.23858 21.3184 8 21.3184H16C18.7614 21.3184 21 19.0798 21 16.3184V8.31836C21 5.55694 18.7614 3.31836 16 3.31836ZM19.25 16.3184C19.2445 18.111 17.7926 19.5629 16 19.5684H8C6.20735 19.5629 4.75549 18.111 4.75 16.3184V8.31836C4.75549 6.52571 6.20735 5.07385 8 5.06836H16C17.7926 5.07385 19.2445 6.52571 19.25 8.31836V16.3184ZM16.75 8.56836C17.3023 8.56836 17.75 8.12064 17.75 7.56836C17.75 7.01608 17.3023 6.56836 16.75 6.56836C16.1977 6.56836 15.75 7.01608 15.75 7.56836C15.75 8.12064 16.1977 8.56836 16.75 8.56836ZM12 7.81836C9.51472 7.81836 7.5 9.83308 7.5 12.3184C7.5 14.8037 9.51472 16.8184 12 16.8184C14.4853 16.8184 16.5 14.8037 16.5 12.3184C16.5027 11.1241 16.0294 9.97793 15.1849 9.13344C14.3404 8.28895 13.1943 7.8157 12 7.81836ZM9.25 12.3184C9.25 13.8372 10.4812 15.0684 12 15.0684C13.5188 15.0684 14.75 13.8372 14.75 12.3184C14.75 10.7996 13.5188 9.56836 12 9.56836C10.4812 9.56836 9.25 10.7996 9.25 12.3184Z" fill="#F5F5F6"/>
</g>
</svg>
