<svg width="42" height="41" viewBox="0 0 42 41" fill="none" xmlns="http://www.w3.org/2000/svg">
<g id="Layer_1" clip-path="url(#clip0_4232_2788)">
<path id="Vector" d="M40.9291 21.4178C40.7527 21.3202 40.575 21.2276 40.4036 21.125C37.3671 19.2933 34.1017 18.1886 30.5559 17.8558C27.4168 17.5605 24.3778 17.9459 21.3851 18.878C21.1875 18.9393 20.8647 18.9242 20.7233 18.8016C18.2723 16.6785 16.4519 14.0999 15.2471 11.0896C15.2258 11.0358 15.2296 10.9708 15.207 10.7956C16.4957 10.4516 17.7806 10.0612 19.088 9.7672C23.2443 8.8326 27.4569 8.55985 31.6845 9.02528C33.7601 9.25423 35.8045 9.76845 37.8588 10.1776C38.0515 10.2164 38.2729 10.394 38.373 10.5692C40.2572 13.8847 41.133 17.4529 41.0042 21.2651C41.0042 21.3001 40.9704 21.3339 40.9291 21.4165V21.4178Z" fill="#5467CC"/>
<path id="Vector_2" d="M31.9119 20.4354C30.0965 28.0786 26.5796 34.7021 20.942 40.142C20.7431 40.3347 20.4128 40.5111 20.1513 40.4999C17.0384 40.3697 13.5015 39.4964 10.3086 37.4033C10.5038 37.2794 10.6602 37.1743 10.8241 37.0793C16.2953 33.8864 19.7459 29.1533 21.4587 23.1016C21.5488 22.7826 21.6739 22.4535 21.6701 22.1307C21.6614 21.3162 22.1506 21.0672 22.8324 20.8771C25.5987 20.1064 28.4012 19.9487 31.2426 20.269C31.4453 20.2915 31.6417 20.3666 31.9132 20.4354H31.9119Z" fill="#5467CC"/>
<path id="Vector_3" d="M11.2964 3.01709C11.5116 4.79495 11.6029 6.52777 11.9457 8.2093C12.9391 13.0725 15.3588 17.1499 19.0496 20.4629C19.4312 20.8057 19.5038 21.1035 19.405 21.5902C18.8207 24.4428 17.2305 27.8859 15.5127 29.8927C14.8058 29.1996 14.0564 28.5452 13.3983 27.8083C8.92297 22.7975 5.82141 17.0573 4.27 10.5014C4.14864 9.98841 4.20494 9.57303 4.52648 9.11762C6.20175 6.75297 8.25987 4.81372 10.7434 3.32237C10.9348 3.20726 11.135 3.10717 11.2964 3.01834V3.01709Z" fill="#5467CC"/>
<path id="Vector_4" d="M2.46628 12.9277C4.65952 20.3019 8.50301 26.4813 13.963 31.7648C13.3024 32.3378 12.7168 32.9384 12.0425 33.4075C10.9014 34.2008 9.7116 34.9252 8.51802 35.6383C8.35662 35.7347 7.97878 35.6896 7.8324 35.5595C4.22163 32.3729 2.00337 28.4055 1.23642 23.6424C0.653392 20.0267 1.06752 16.521 2.46754 12.929L2.46628 12.9277Z" fill="#5467CC"/>
<path id="Vector_5" d="M24.1653 40.2549C29.2186 34.6586 32.5004 28.2591 34.1919 20.9399C34.5835 21.0525 34.9764 21.1051 35.3117 21.274C36.9607 22.101 38.5946 22.9593 40.2336 23.805C40.634 24.0115 40.6753 24.2905 40.5677 24.7296C38.716 32.3165 34.0518 37.2823 26.6563 39.7132C26.0871 39.9009 25.4915 40.0122 24.906 40.1486C24.7071 40.1949 24.5006 40.2087 24.1641 40.2549H24.1653Z" fill="#5467CC"/>
<path id="Vector_6" d="M35.8932 7.13206C28.5816 5.8484 21.4689 6.34635 14.43 8.61215C13.8908 6.45895 13.6343 4.32702 13.8407 2.15505C13.8582 1.96613 14.1247 1.71465 14.3274 1.64334C17.0524 0.698733 19.8437 0.322142 22.73 0.577373C27.4018 0.991499 31.4091 2.84193 34.8197 6.02856C35.1938 6.37888 35.5366 6.76298 35.8932 7.13206Z" fill="#5467CC"/>
</g>
<defs>
<clipPath id="clip0_4232_2788">
<rect width="40.0375" height="40" fill="white" transform="translate(0.980469 0.5)"/>
</clipPath>
</defs>
</svg>
