<svg width="44" height="41" viewBox="0 0 44 41" fill="none" xmlns="http://www.w3.org/2000/svg">
<g id="Layer_1" clip-path="url(#clip0_4232_2778)">
<path id="Vector" d="M27.3347 34.5144V30.2397C22.4734 29.6517 18.645 27.3789 16.0333 23.2321C13.9973 19.9971 13.3141 16.4463 14.0286 12.686C15.4685 5.10272 22.1603 0.101192 29.4496 0.524451C37.693 1.00351 43.2933 7.61642 43.541 14.8486C43.8187 22.9653 37.6603 29.5238 29.9968 30.2125V34.5131C30.763 34.5131 31.5278 34.5104 32.2913 34.5131C34.4294 34.5226 35.9047 36.0006 35.9237 38.1537C35.9251 38.3578 35.9237 38.5619 35.9237 38.7661C35.921 40.0127 35.442 40.4972 34.2076 40.4972C30.5112 40.4972 26.8148 40.4972 23.1171 40.4972C21.8909 40.4972 21.4281 40.0481 21.4363 38.8219C21.4404 38.2353 21.4227 37.6283 21.5574 37.0649C21.9195 35.5624 23.2736 34.543 24.8469 34.5144C25.658 34.4995 26.4691 34.5117 27.332 34.5117L27.3347 34.5144ZM33.2263 8.69158C33.2209 7.8995 32.9351 7.50754 32.4342 7.30884C31.8694 7.08292 31.3809 7.26665 30.9562 7.69263C27.6287 11.0283 24.293 14.3586 20.9668 17.6943C20.3979 18.2646 20.3557 19.0689 20.8402 19.5738C21.3424 20.0978 22.1331 20.1005 22.7143 19.5207C26.0854 16.1633 29.4483 12.7976 32.8003 9.42105C33.0358 9.18288 33.1515 8.82631 33.2277 8.69294L33.2263 8.69158ZM26.6502 19.5384C26.6774 20.3251 26.9523 20.6898 27.4545 20.9212C28.056 21.1974 28.5119 20.9416 28.9162 20.5401C30.5561 18.9124 32.1906 17.2806 33.8142 15.6366C34.4457 14.9983 34.458 14.2633 33.8891 13.7244C33.3624 13.2263 32.6084 13.2658 32.0164 13.8537C30.3765 15.4814 28.7392 17.1118 27.1224 18.7627C26.8733 19.0172 26.7386 19.386 26.6488 19.5384H26.6502Z" fill="#5467CC"/>
<path id="Vector_2" d="M6.81003 40.4115C6.81003 38.2135 6.76375 36.036 6.82364 33.8625C6.87807 31.8796 8.57383 30.3145 10.5649 30.2982C11.7435 30.2886 12.9221 30.2886 14.1007 30.2982C16.1979 30.3159 17.8229 31.9599 17.8311 34.0694C17.8365 35.7474 17.8365 37.4242 17.8311 39.1022C17.8284 39.961 17.3602 40.489 16.5178 40.4931C13.344 40.5067 10.1702 40.4931 6.99648 40.4877C6.95701 40.4877 6.91618 40.4564 6.81003 40.4128V40.4115Z" fill="#5467CC"/>
<path id="Vector_3" d="M0.000888791 25.1797H10.977V27.6144C10.2925 27.7315 9.5698 27.7886 8.88932 27.9846C6.11296 28.7835 4.25661 31.2455 4.22803 34.1348C4.20762 36.1749 4.22123 38.215 4.21851 40.255C4.21851 40.3 4.2049 40.3449 4.18584 40.4674C3.14743 40.4674 2.0886 40.5313 1.04202 40.4456C0.341129 40.3871 0.00361071 39.8182 0.00224975 39.0002C-0.00183313 35.1691 0.000888791 31.338 0.000888791 27.5069C0.000888791 26.7421 0.000888791 25.9786 0.000888791 25.1797Z" fill="#5467CC"/>
<path id="Vector_4" d="M1.75244 14.8988C1.75244 13.1554 1.67895 11.4582 1.77966 9.77202C1.84363 8.70911 2.5486 7.94969 3.54483 7.55501C4.88537 7.02288 6.23953 6.52477 7.59777 6.0389C8.47151 5.72588 9.33844 6.21991 9.35749 7.13584C9.40921 9.70942 9.37518 12.2844 9.37518 14.8988H1.75244Z" fill="#5467CC"/>
<path id="Vector_5" d="M11.0261 22.6143H0.0199902C0.0199902 21.3609 -0.0358092 20.1401 0.0390436 18.9275C0.0893992 18.115 0.835206 17.5189 1.69805 17.5107C4.26074 17.4903 6.82343 17.4835 9.38612 17.5134C10.3578 17.5243 11.0179 18.2606 11.0247 19.2296C11.0329 20.3374 11.0261 21.4466 11.0261 22.6143Z" fill="#5467CC"/>
</g>
<defs>
<clipPath id="clip0_4232_2778">
<rect width="43.5494" height="40" fill="white" transform="translate(0 0.5)"/>
</clipPath>
</defs>
</svg>
