<svg width="45" height="41" viewBox="0 0 45 41" fill="none" xmlns="http://www.w3.org/2000/svg">
<g id="Layer_1" clip-path="url(#clip0_4232_2799)">
<path id="Vector" d="M19.2046 23.3346C18.0452 21.5186 16.8775 19.8273 15.8635 18.0487C15.2056 16.8934 13.8038 16.7979 13.1887 18.1055C12.8577 18.8105 12.3729 19.4422 12.0002 20.1306C11.7952 20.5102 11.5348 20.621 11.1179 20.6182C8.32396 20.6016 5.53142 20.6224 2.7375 20.5891C2.46047 20.5863 2.06846 20.3813 1.92717 20.15C-3.11214 11.8292 2.38013 2.13291 10.9004 0.690927C15.0116 -0.00443584 18.5785 1.26578 21.7561 3.83253C21.8794 3.93226 22.0013 4.03338 22.1523 4.15666C23.7037 2.83796 25.3894 1.7783 27.3162 1.14388C34.8267 -1.33144 42.4245 3.6386 44.0285 10.7792C44.771 14.0871 44.1158 17.1719 42.4494 20.0835C42.2264 20.4741 41.9757 20.621 41.5213 20.6182C38.3118 20.5988 35.1037 20.596 31.8943 20.6196C31.4081 20.6237 31.1518 20.4617 30.9302 20.0434C29.6156 17.5611 28.2706 15.0941 26.9492 12.616C26.6403 12.037 26.2995 11.5716 25.5418 11.602C24.8104 11.6311 24.5251 12.1256 24.2605 12.6852C22.6869 16.0138 21.1092 19.3411 19.5329 22.6683C19.4456 22.8539 19.3514 23.0354 19.2032 23.3346H19.2046Z" fill="#5467CC"/>
<path id="Vector_2" d="M4.25781 23.1476C6.93399 23.1476 9.44949 23.113 11.9622 23.1656C12.8626 23.185 13.461 22.9052 13.8461 22.0948C14.0303 21.707 14.2893 21.3538 14.5664 20.8994C15.3878 22.1863 16.1621 23.3997 16.935 24.6131C17.3437 25.2545 17.762 25.8916 18.1568 26.5413C18.4698 27.0566 18.8784 27.353 19.5129 27.299C20.1307 27.2477 20.4243 26.8502 20.6626 26.3446C22.045 23.4094 23.4343 20.4783 24.8237 17.5459C25.0882 16.9863 25.3653 16.4322 25.6825 15.7798C26.0149 16.3837 26.3114 16.9115 26.5995 17.4448C27.4195 18.9643 28.2686 20.47 29.0402 22.0145C29.4516 22.8373 29.9904 23.1822 30.9365 23.1656C33.9133 23.113 36.89 23.1462 39.9914 23.1462C39.8405 23.3498 39.7573 23.4939 39.6451 23.6075C34.1847 29.0485 28.7243 34.4895 23.2584 39.925C22.5062 40.673 21.8123 40.6896 21.0947 39.9762C15.5956 34.5089 10.1005 29.0374 4.60688 23.5645C4.51407 23.4731 4.43927 23.3637 4.2592 23.1462L4.25781 23.1476Z" fill="#5467CC"/>
</g>
<defs>
<clipPath id="clip0_4232_2799">
<rect width="44.3315" height="40" fill="white" transform="translate(0 0.5)"/>
</clipPath>
</defs>
</svg>
