<svg width="24" height="25" viewBox="0 0 24 25" fill="none" xmlns="http://www.w3.org/2000/svg">
<g id="Icon / LinkedIn">
<path id="Vector" fill-rule="evenodd" clip-rule="evenodd" d="M5 3.31836H19C20.1046 3.31836 21 4.21379 21 5.31836V19.3184C21 20.423 20.1046 21.3184 19 21.3184H5C3.89543 21.3184 3 20.423 3 19.3184V5.31836C3 4.21379 3.89543 3.31836 5 3.31836ZM8 18.3184C8.27614 18.3184 8.5 18.0945 8.5 17.8184V10.8184C8.5 10.5423 8.27614 10.3184 8 10.3184H6.5C6.22386 10.3184 6 10.5423 6 10.8184V17.8184C6 18.0945 6.22386 18.3184 6.5 18.3184H8ZM7.25 9.31836C6.42157 9.31836 5.75 8.64679 5.75 7.81836C5.75 6.98993 6.42157 6.31836 7.25 6.31836C8.07843 6.31836 8.75 6.98993 8.75 7.81836C8.75 8.64679 8.07843 9.31836 7.25 9.31836ZM17.5 18.3184C17.7761 18.3184 18 18.0945 18 17.8184V13.2184C18.0325 11.6292 16.8576 10.2729 15.28 10.0784C14.177 9.97761 13.1083 10.4928 12.5 11.4184V10.8184C12.5 10.5423 12.2761 10.3184 12 10.3184H10.5C10.2239 10.3184 10 10.5423 10 10.8184V17.8184C10 18.0945 10.2239 18.3184 10.5 18.3184H12C12.2761 18.3184 12.5 18.0945 12.5 17.8184V14.0684C12.5 13.24 13.1716 12.5684 14 12.5684C14.8284 12.5684 15.5 13.24 15.5 14.0684V17.8184C15.5 18.0945 15.7239 18.3184 16 18.3184H17.5Z" fill="#F5F5F6"/>
</g>
</svg>
