<svg width="79" height="33" viewBox="0 0 79 33" fill="none" xmlns="http://www.w3.org/2000/svg">
<g id="logos:apple-pay" clip-path="url(#clip0_4232_2954)">
<path id="Vector" d="M14.7777 4.42877C13.8678 5.50554 12.4115 6.35514 10.9554 6.23366C10.7735 4.77773 11.4863 3.23051 12.3205 2.27491C13.2305 1.1678 14.8232 0.379023 16.1125 0.318359C16.2641 1.8351 15.6725 3.32151 14.7777 4.42877ZM16.0974 6.52196C13.9891 6.40063 12.1842 7.72007 11.1831 7.72007C10.167 7.72007 8.63492 6.58262 6.96652 6.61296C4.79765 6.64329 2.78028 7.87172 1.67302 9.82843C-0.602164 13.7417 1.08155 19.5358 3.28075 22.7209C4.35768 24.2983 5.64693 26.0274 7.34566 25.9667C8.95355 25.9061 9.59052 24.9203 11.5321 24.9203C13.4886 24.9203 14.0499 25.9667 15.7486 25.9364C17.508 25.9061 18.6153 24.3592 19.6922 22.7816C20.9206 20.9919 21.4213 19.2475 21.4516 19.1565C21.4213 19.1262 18.0541 17.8371 18.0238 13.954C17.9935 10.7082 20.6781 9.16113 20.7995 9.07013C19.2826 6.82528 16.9165 6.58262 16.0974 6.52196ZM28.2771 2.12325V25.7697H31.9476V17.6854H37.0288C41.67 17.6854 44.9311 14.5003 44.9311 9.88924C44.9311 5.27836 41.7306 2.1234 37.1501 2.1234L28.2771 2.12325ZM31.9476 5.21754H36.1793C39.3646 5.21754 41.1847 6.91627 41.1847 9.90425C41.1847 12.8922 39.3646 14.6063 36.1642 14.6063H31.9476V5.21754ZM51.635 25.9516C53.9405 25.9516 56.0791 24.7838 57.0499 22.9333H57.1257V25.7696H60.5233V13.9995C60.5233 10.5869 57.7931 8.38752 53.5916 8.38752C49.6935 8.38752 46.8117 10.6172 46.7055 13.681H50.0121C50.2851 12.2249 51.6349 11.2693 53.4854 11.2693C55.7303 11.2693 56.9892 12.3159 56.9892 14.2423V15.5466L52.4085 15.8196C48.1464 16.0774 45.8411 17.8218 45.8411 20.8554C45.8411 23.9192 48.2222 25.9516 51.635 25.9516ZM52.6208 23.1456C50.6644 23.1456 49.4205 22.2053 49.4205 20.7642C49.4205 19.278 50.6188 18.4134 52.9091 18.2769L56.9892 18.0191V19.3537C56.9892 21.5682 55.1085 23.1456 52.621 23.1456M65.0585 32.2007C68.6381 32.2007 70.3217 30.8357 71.7929 26.6949L78.239 8.615H74.5078L70.185 22.5843H70.1092L65.7865 8.615H61.949L68.1677 25.8302L67.834 26.8768C67.2729 28.6514 66.3628 29.334 64.7399 29.334C64.4517 29.334 63.8906 29.3037 63.6629 29.2734V32.1097C63.8753 32.1703 64.7852 32.2007 65.0583 32.2007" fill="black"/>
</g>
<defs>
<clipPath id="clip0_4232_2954">
<rect width="77.6493" height="32" fill="white" transform="translate(0.589844 0.318359)"/>
</clipPath>
</defs>
</svg>
