<svg width="52" height="33" viewBox="0 0 52 33" fill="none" xmlns="http://www.w3.org/2000/svg">
<g id="logos:mastercard" clip-path="url(#clip0_4232_2958)">
<path id="Vector" d="M18.7734 3.66309H32.4591V28.2539H18.7734V3.66309Z" fill="#FF5F00"/>
<path id="Vector_2" d="M19.6425 15.9592C19.6425 10.9629 21.9885 6.53123 25.5945 3.66368C22.9445 1.57827 19.5991 0.318359 15.9496 0.318359C7.30342 0.318359 0.308594 7.31319 0.308594 15.9592C0.308594 24.605 7.30342 31.6 15.9494 31.6C19.5989 31.6 22.9443 30.3401 25.5945 28.2545C21.9885 25.4305 19.6425 20.9555 19.6425 15.9592Z" fill="#EB001B"/>
<path id="Vector_3" d="M50.9226 15.9592C50.9226 24.605 43.9278 31.6 35.2818 31.6C31.6323 31.6 28.287 30.3401 25.6367 28.2545C29.2862 25.3872 31.5889 20.9555 31.5889 15.9592C31.5889 10.9629 29.2427 6.53123 25.6367 3.66368C28.2868 1.57827 31.6323 0.318359 35.2818 0.318359C43.9278 0.318359 50.9226 7.35673 50.9226 15.9592Z" fill="#F79E1B"/>
</g>
<defs>
<clipPath id="clip0_4232_2958">
<rect width="51.6923" height="32" fill="white" transform="translate(0.308594 0.318359)"/>
</clipPath>
</defs>
</svg>
