<svg width="29" height="33" viewBox="0 0 29 33" fill="none" xmlns="http://www.w3.org/2000/svg">
<g id="logos:paypal" clip-path="url(#clip0_4232_2949)">
<path id="Vector" d="M23.9879 2.80962C22.5115 1.12676 19.8426 0.405273 16.4282 0.405273H6.51881C6.18099 0.405286 5.85425 0.525807 5.59735 0.74517C5.34044 0.964532 5.17021 1.26835 5.11727 1.60199L0.991176 27.7707C0.909163 28.2867 1.30874 28.754 1.83176 28.754H7.94948L9.4859 19.0087L9.43822 19.3139C9.54768 18.625 10.1368 18.117 10.8345 18.117H13.7416C19.4526 18.117 23.9245 15.7973 25.2308 9.08692C25.2695 8.88845 25.3031 8.69529 25.3322 8.50657C25.1673 8.41926 25.1673 8.41926 25.3322 8.50657C25.7211 6.02636 25.3295 4.33809 23.9879 2.80962Z" fill="#27346A"/>
<path id="Vector_2" d="M11.8268 7.61311C11.994 7.53348 12.177 7.49221 12.3622 7.49232H20.131C21.0509 7.49232 21.909 7.55219 22.6931 7.67839C22.9125 7.71337 23.1308 7.75514 23.3476 7.80363C23.6549 7.87144 23.9587 7.95444 24.2578 8.05232C24.6433 8.18106 25.0023 8.331 25.3323 8.50657C25.7211 6.02541 25.3295 4.33809 23.9879 2.80962C22.5106 1.12676 19.8426 0.405273 16.4282 0.405273H6.51796C5.82021 0.405273 5.22662 0.913247 5.11727 1.60199L0.991177 27.7697C0.909163 28.2866 1.30874 28.7532 1.83091 28.7532H7.94948L11.1371 8.53921C11.1684 8.34052 11.2476 8.15242 11.3677 7.9911C11.4879 7.82978 11.6454 7.70006 11.8268 7.61311Z" fill="#27346A"/>
<path id="Vector_3" d="M25.2288 9.0862C23.9225 15.7956 19.4507 18.1162 13.7396 18.1162H10.8316C10.134 18.1162 9.54473 18.6243 9.43634 19.3132L7.52492 31.4303C7.4535 31.8819 7.80275 32.2911 8.25965 32.2911H13.4167C13.7121 32.291 13.9978 32.1855 14.2224 31.9936C14.447 31.8017 14.5958 31.536 14.642 31.2442L14.6922 30.9814L15.6642 24.8213L15.7268 24.4809C15.7729 24.1891 15.9217 23.9234 16.1462 23.7315C16.3708 23.5396 16.6565 23.4341 16.9519 23.434H17.7237C22.7194 23.434 26.6311 21.4044 27.7742 15.5346C28.2514 13.0816 28.0045 11.0336 26.7423 9.59513C26.3595 9.15942 25.884 8.79958 25.3302 8.50586C25.3002 8.69553 25.2677 8.88774 25.2288 9.0862Z" fill="#2790C3"/>
<path id="Vector_4" d="M23.9635 7.96149C23.7598 7.90201 23.5542 7.84936 23.347 7.80361C23.1301 7.75591 22.9118 7.71443 22.6925 7.67921C21.9075 7.55216 21.0501 7.49219 20.1293 7.49219H12.3615C12.1761 7.49177 11.993 7.5334 11.8261 7.61394C11.6445 7.70062 11.4868 7.83026 11.3666 7.99163C11.2464 8.153 11.1673 8.34123 11.1363 8.54003L9.48518 19.0087L9.4375 19.3139C9.54611 18.625 10.1352 18.1169 10.833 18.1169H13.741C19.452 18.1169 23.9238 15.7973 25.23 9.08689C25.2689 8.88843 25.3016 8.69611 25.3315 8.50655C25.0007 8.33193 24.6427 8.18104 24.2571 8.05314C24.1598 8.02089 24.062 7.99033 23.9636 7.96149" fill="#1F264F"/>
</g>
<defs>
<clipPath id="clip0_4232_2949">
<rect width="27.1258" height="32" fill="white" transform="translate(0.976562 0.318359)"/>
</clipPath>
</defs>
</svg>
