<svg width="24" height="25" viewBox="0 0 24 25" fill="none" xmlns="http://www.w3.org/2000/svg">
<g id="Icon / Twitter">
<path id="Vector" d="M20.9737 7.03576C20.5093 7.65528 19.9479 8.19569 19.3112 8.63612C19.3112 8.79795 19.3112 8.95978 19.3112 9.13061C19.3163 12.0695 18.1424 14.8875 16.0527 16.9529C13.9629 19.0183 11.1321 20.1583 8.19491 20.1173C6.49685 20.123 4.82053 19.7353 3.29728 18.9845C3.21514 18.9486 3.16217 18.8674 3.16248 18.7777V18.6788C3.16248 18.5497 3.26709 18.4451 3.39613 18.4451C5.06528 18.39 6.67488 17.8113 7.9972 16.7908C6.48639 16.7603 5.12705 15.8653 4.50146 14.4891C4.46987 14.414 4.4797 14.3277 4.52743 14.2616C4.57515 14.1955 4.65386 14.1591 4.73511 14.1655C5.19428 14.2116 5.65804 14.1689 6.10106 14.0396C4.43325 13.6934 3.18007 12.3088 3.00072 10.6141C2.99435 10.5328 3.03078 10.4541 3.09686 10.4063C3.16293 10.3586 3.2491 10.3487 3.32424 10.3804C3.7718 10.5779 4.25495 10.6819 4.7441 10.686C3.2827 9.72682 2.65147 7.90241 3.20741 6.24458C3.2648 6.08349 3.40267 5.96448 3.57036 5.9313C3.73804 5.89811 3.91082 5.95564 4.02518 6.08275C5.99725 8.18161 8.7069 9.43232 11.5828 9.57115C11.5092 9.27721 11.473 8.97512 11.475 8.67208C11.5019 7.08308 12.4851 5.66757 13.9643 5.08823C15.4434 4.5089 17.1258 4.88039 18.2239 6.0288C18.9723 5.88621 19.6959 5.63481 20.3716 5.28257C20.4211 5.25167 20.4839 5.25167 20.5334 5.28257C20.5643 5.33209 20.5643 5.39488 20.5334 5.4444C20.2061 6.19388 19.6532 6.82248 18.9518 7.24255C19.566 7.17132 20.1694 7.02643 20.7491 6.811C20.7979 6.77778 20.862 6.77778 20.9108 6.811C20.9517 6.8297 20.9823 6.86547 20.9944 6.90878C21.0065 6.95209 20.9989 6.99854 20.9737 7.03576Z" fill="#F5F5F6"/>
</g>
</svg>
